<svg xmlns="http://www.w3.org/2000/svg" xmlns:xlink="http://www.w3.org/1999/xlink" version="1.1" width="100" height="100" viewBox="0 0 55 55">
<path d="M14.9 49C14.45 49 14 48.85 13.65 48.6 13 48.1 12.65 47.3 12.8 46.5L14.95 33.9C15 33.7 14.9 33.5 14.75 33.35L5.65 24.45C5.05 23.9 4.85 23.05 5.1 22.25 5.35 21.45 6 20.9 6.8 20.8L19.45 18.95C19.65 18.9 19.85 18.8 19.95 18.6L25.6 7.2C25.95 6.45 26.7 6 27.5 6S29.05 6.45 29.4 7.2L35.05 18.65C35.15 18.85 35.35 18.95 35.55 19L48.2 20.85C49 20.95 49.65 21.5 49.9 22.3S49.95 23.9 49.35 24.5L40.2 33.35C40.05 33.5 40 33.7 40 33.9L42.15 46.5C42.3 47.3 41.95 48.1 41.3 48.6 40.65 49.1 39.8 49.15 39.05 48.75L27.8 42.8C27.6 42.7 27.4 42.7 27.2 42.8L15.9 48.75C15.6 48.9 15.25 49 14.9 49Z" style="stroke: rgb(0,0,0); stroke-width: 4; stroke-dasharray: none; stroke-linecap: butt; stroke-linejoin: miter; stroke-miterlimit: 10; fill: none; fill-rule: nonzero; opacity: 1;" stroke-linecap="round"/>
</svg>